# xmcd
#
# Track frame offsets: 
#        150
#        12964
#        22840
#        34586
#        65859
#        74224
#        97275
#        113198
#        124795
#        139993
#        186956
#        200983
#        215831
#        229754
#        242775
#
# Disc length: 3405 seconds
#
# Revision: 0
# Processed by: cddbd v1.5.2PL0 Copyright (c) Steve Scherf et al.
# Submitted via: ExactAudioCopy v0.95a5
#
DISCID=f20d4b0f
DTITLE=Various Artist - So Blues - CD3
DYEAR=2007
DGENRE=Blues
TTITLE0=Willie Mae "Big Mama" Thomton - Hound Dog
TTITLE1=Buddy Guy and Junior Wells - First Time I Met The Blues
TTITLE2=Mississipi Fred Mc Dowell - Good Morning Little School Girl
TTITLE3=Sonny Terry and Brownie Mc Ghee - Blues For The Gamblers
TTITLE4=Leadbelly - On Monday
TTITLE5=John Mayall - Baby What Do You Want Me To Do
TTITLE6=Blind Boy Fuller and Sonny Terry - Lonesome Train
TTITLE7=Ray Charles - CC Rider
TTITLE8=Johnny Otis - Bad Luck Shadow
TTITLE9=Bo Diddley - I'm A Man
TTITLE10=Arthur "Big Boy" Crudup - My Mamma Don't Allow Me
TTITLE11=Dr John - Zu Zu Man
TTITLE12=Lonnie Johnson - Tomorrow Night
TTITLE13=Memphlis Slim - Empty Room Blues
TTITLE14=Ivory Joe Hunter - Landlord Blues
EXTD=
EXTT0=
EXTT1=
EXTT2=
EXTT3=
EXTT4=
EXTT5=
EXTT6=
EXTT7=
EXTT8=
EXTT9=
EXTT10=
EXTT11=
EXTT12=
EXTT13=
EXTT14=
PLAYORDER=
